<?xml version="1.0" encoding="utf-8"?>
<svg version="1.2" baseProfile="tiny" xmlns="http://www.w3.org/2000/svg" xmlns:xlink="http://www.w3.org/1999/xlink">
    <symbol id="mail" viewBox="0 0 32 32">
        <polygon id="XMLID_36_"
                 points="16,23.8 11.6,20 2.3,31 29.8,31 20.4,20"/>
        <polygon id="XMLID_35_"
                 points="30.4,9.1 1.7,9.1 16,21.1"/>
        <polygon id="XMLID_34_"
                 points="21.9,18.7 31.5,29.9 31.5,10.6"/>
        <polygon id="XMLID_33_"
                 points="0.6,10.6 0.6,29.9 10.1,18.7"/>
    </symbol>
    <symbol id="github" viewBox="32 0 32 32">
        <path id="XMLID_3_" d="M48,0.8c-8.4,0-15.2,6.8-15.2,15.2
		c0,6.7,4.4,12.4,10.4,14.4c0.8,0.1,1-0.3,1-0.7c0-0.4,0-1.6,0-2.8C40,27.8,39.1,25,39.1,25c-0.7-1.8-1.7-2.2-1.7-2.2
		c-1.4-0.9,0.1-0.9,0.1-0.9c1.5,0.1,2.3,1.6,2.3,1.6c1.4,2.3,3.6,1.7,4.4,1.3c0.1-1,0.5-1.7,1-2c-3.4-0.4-6.9-1.7-6.9-7.5
		c0-1.7,0.6-3,1.6-4.1c-0.2-0.4-0.7-1.9,0.1-4c0,0,1.3-0.4,4.2,1.6c1.2-0.3,2.5-0.5,3.8-0.5c1.3,0,2.6,0.2,3.8,0.5
		c2.9-2,4.2-1.6,4.2-1.6c0.8,2.1,0.3,3.6,0.1,4c1,1.1,1.6,2.4,1.6,4.1c0,5.8-3.6,7.1-6.9,7.5c0.5,0.5,1,1.4,1,2.8c0,2,0,3.7,0,4.2
		c0,0.4,0.3,0.9,1,0.7c6-2,10.4-7.7,10.4-14.4C63.2,7.6,56.4,0.8,48,0.8z"/>
    </symbol>
    <symbol id="linkedin" viewBox="64 0 32 32">
        <path id="XMLID_18_" d="M71.7,10.9v19.6h-6.5V10.9
		C65.2,10.9,71.7,10.9,71.7,10.9z M72.1,4.9c0,1-0.3,1.8-1,2.4s-1.6,1-2.7,1h0c-1.1,0-2-0.3-2.6-1c-0.7-0.6-1-1.5-1-2.4
		c0-1,0.3-1.8,1-2.4s1.6-1,2.7-1c1.1,0,2,0.3,2.6,1S72.1,3.9,72.1,4.9z M95.2,19.3v11.2h-6.5V20c0-1.4-0.3-2.5-0.8-3.3
		c-0.5-0.8-1.4-1.2-2.5-1.2c-0.8,0-1.5,0.2-2.1,0.7c-0.6,0.5-1,1-1.3,1.7c-0.1,0.4-0.2,0.9-0.2,1.6v10.9h-6.5c0-5.3,0-9.5,0-12.8
		s0-5.2,0-5.9l0-0.9h6.5v2.7l0,0c0.3-0.4,0.5-0.7,0.8-1c0.3-0.3,0.6-0.7,1.1-1c0.5-0.4,1-0.7,1.7-0.9c0.7-0.2,1.4-0.3,2.3-0.3
		c2.3,0,4.1,0.7,5.4,2.2S95.2,16.4,95.2,19.3L95.2,19.3z"/>
    </symbol>
    <symbol id="medium" viewBox="96 0 32 32">
        <path id="XMLID_28_" d="M106.7,10.2v18.9c0,0.3-0.1,0.5-0.2,0.7
		c-0.1,0.2-0.3,0.3-0.6,0.3c-0.2,0-0.4,0-0.5-0.1l-7.5-3.8c-0.2-0.1-0.4-0.3-0.6-0.5c-0.2-0.3-0.2-0.5-0.2-0.7V6.5
		c0-0.2,0.1-0.4,0.2-0.5c0.1-0.2,0.3-0.2,0.5-0.2c0.2,0,0.4,0.1,0.7,0.2L106.7,10.2C106.7,10.1,106.7,10.1,106.7,10.2L106.7,10.2z"
        />
        <polygon id="XMLID_27_"
                 points="108.2,11.8 116.8,25.8 108.2,21.5"/>
        <path id="XMLID_26_" d="M127,12.4v17c0,0.3-0.1,0.5-0.2,0.7
		c-0.2,0.2-0.4,0.2-0.6,0.2s-0.5-0.1-0.8-0.2l-7.1-3.5L127,12.4z"/>
        <path id="XMLID_25_" d="M126.7,10c0,0-1.4,2.3-4.1,6.8
		c-2.8,4.5-4.4,7.1-4.8,7.9l-6.3-10.2l5.2-8.5c0.2-0.3,0.5-0.5,0.8-0.5c0.2,0,0.3,0,0.4,0.1L126.7,10C126.7,9.9,126.7,10,126.7,10
		L126.7,10z"/>
    </symbol>
    <symbol id="twitter" viewBox="128 0 32 32">
        <path id="XMLID_29_" d="M158.4,9.5c-1,0.5-2.2,0.8-3.3,0.9
		c1.2-0.7,2.1-1.9,2.6-3.2c-1.1,0.7-2.4,1.1-3.7,1.4c-1.1-1.1-2.6-1.8-4.2-1.8c-3.2,0-5.8,2.6-5.8,5.8c0,0.5,0,0.9,0.1,1.3
		c-4.8-0.2-9.1-2.6-12-6.1c-0.5,0.9-0.8,1.9-0.8,2.9c0,2,1.5,3.8,3.1,4.9c-1,0-2.3-0.3-3.1-0.8c0,0,0,0,0,0.1c0,2.8,2.8,5,5.4,5.6
		c-0.5,0.1-1.8,0.3-2.3,0.3c-0.4,0-0.7,0-1.1-0.1c0.7,2.3,3.2,3.8,5.8,3.9c-2,1.6-4.8,2.6-7.5,2.6c-0.5,0-0.9,0-1.4-0.1
		c2.6,1.7,5.6,2.6,8.9,2.6c10.7,0,16.5-8.8,16.5-16.5c0-0.3,0-0.5,0-0.8C156.7,11.7,157.7,10.7,158.4,9.5L158.4,9.5z"/>
    </symbol>
</svg>
