<svg xmlns="http://www.w3.org/2000/svg">
<symbol id="mail" viewBox="0 0 32 32">
	<path id="XMLID_32_" d="M16,23.1l-4.7-3.8l-10.1,12h29.6L20.7,19.1C20.7,19.1,16,23.1,16,23.1z M31.9,8.4H0.1L16,21.8
		C16,21.8,31.9,8.4,31.9,8.4z M21.4,18.5L32,31.2V9.5C32,9.5,21.4,18.5,21.4,18.5z M0,9.5v21.7l10.6-12.7C10.6,18.5,0,9.5,0,9.5z"/>
</symbol>
<symbol id="github" viewBox="32 0 32 32">
	<path id="XMLID_3_" d="M48,0c-8.8,0-16,7.2-16,16c0,7.1,4.6,13.1,10.9,15.2c0.8,0.1,1.1-0.3,1.1-0.8c0-0.4,0-1.6,0-3
		c-4.5,1-5.4-1.9-5.4-1.9c-0.7-1.8-1.8-2.3-1.8-2.3c-1.5-1,0.1-1,0.1-1c1.6,0.1,2.5,1.6,2.5,1.6c1.4,2.4,3.7,1.7,4.7,1.3
		c0.1-1,0.6-1.7,1-2.1c-3.6-0.4-7.3-1.8-7.3-7.9c0-1.7,0.6-3.2,1.6-4.3c-0.2-0.4-0.7-2,0.2-4.2c0,0,1.3-0.4,4.4,1.6
		c1.3-0.4,2.6-0.5,4-0.5c1.4,0,2.7,0.2,4,0.5c3.1-2.1,4.4-1.6,4.4-1.6c0.9,2.2,0.3,3.8,0.2,4.2c1,1.1,1.6,2.5,1.6,4.3
		c0,6.1-3.7,7.5-7.3,7.9c0.6,0.5,1.1,1.5,1.1,3c0,2.1,0,3.9,0,4.4c0,0.4,0.3,0.9,1.1,0.8C59.4,29.1,64,23.1,64,16
		C64,7.2,56.8,0,48,0z"/>
</symbol>
<symbol id="linkedin" viewBox="64 0 32 32">
	<path id="XMLID_18_" d="M71.3,10.6v20.6h-6.9V10.6C64.4,10.6,71.3,10.6,71.3,10.6z M71.7,4.3c0,1-0.3,1.9-1.1,2.5
		c-0.7,0.7-1.7,1-2.8,1h0c-1.1,0-2.1-0.3-2.7-1c-0.7-0.7-1-1.5-1-2.5c0-1,0.4-1.9,1.1-2.6s1.6-1,2.8-1c1.2,0,2.1,0.3,2.8,1
		S71.7,3.2,71.7,4.3z M96,19.5v11.8h-6.9v-11c0-1.5-0.3-2.6-0.8-3.4c-0.6-0.8-1.4-1.2-2.6-1.2c-0.9,0-1.6,0.2-2.2,0.7
		c-0.6,0.5-1,1.1-1.3,1.8c-0.2,0.4-0.2,1-0.2,1.7v11.5h-6.9c0-5.5,0-10,0-13.5s0-5.5,0-6.2l0-1h6.9v3h0c0.3-0.4,0.6-0.8,0.9-1.2
		c0.3-0.3,0.7-0.7,1.2-1.1c0.5-0.4,1.1-0.7,1.8-0.9c0.7-0.2,1.5-0.3,2.4-0.3c2.4,0,4.3,0.8,5.7,2.4C95.3,14.1,96,16.4,96,19.5
		L96,19.5z"/>
</symbol>
<symbol id="medium" viewBox="96 0 32 32">
	<path id="XMLID_24_" d="M106.7,9.3v20.9c0,0.3-0.1,0.6-0.2,0.8s-0.4,0.3-0.7,0.3c-0.2,0-0.4,0-0.6-0.1L96.9,27
		c-0.2-0.1-0.5-0.3-0.6-0.6c-0.2-0.3-0.3-0.6-0.3-0.8V5.3c0-0.2,0.1-0.4,0.2-0.6c0.1-0.2,0.3-0.2,0.5-0.2c0.2,0,0.4,0.1,0.8,0.3
		L106.7,9.3C106.6,9.3,106.7,9.3,106.7,9.3L106.7,9.3z M107.8,11.1l9.5,15.5l-9.5-4.8V11.1z M128,11.5v18.8c0,0.3-0.1,0.5-0.2,0.7
		c-0.2,0.2-0.4,0.3-0.7,0.3s-0.6-0.1-0.8-0.2l-7.9-3.9L128,11.5z M127.9,9.3c0,0-1.5,2.5-4.6,7.5c-3.1,5-4.8,7.9-5.4,8.7l-7-11.3
		l5.8-9.4c0.2-0.3,0.5-0.5,0.9-0.5c0.2,0,0.3,0,0.5,0.1l9.7,4.8C127.9,9.2,127.9,9.3,127.9,9.3L127.9,9.3z"/>
</symbol>
<symbol id="twitter" viewBox="128 0 32 32">
	<path id="XMLID_29_" d="M160,8.3c-1.2,0.5-2.4,0.9-3.8,1c1.4-0.8,2.4-2.1,2.9-3.6c-1.3,0.8-2.7,1.3-4.2,1.6
		c-1.2-1.3-2.9-2.1-4.8-2.1c-3.6,0-6.6,2.9-6.6,6.6c0,0.5,0.1,1,0.2,1.5c-5.5-0.3-10.3-2.9-13.5-6.9c-0.6,1-0.9,2.1-0.9,3.3
		c0,2.3,1.2,4.3,2.9,5.5c-1.1,0-2.1-0.3-3-0.8c0,0,0,0.1,0,0.1c0,3.2,2.3,5.8,5.3,6.4c-0.6,0.1-1.1,0.2-1.7,0.2
		c-0.4,0-0.8,0-1.2-0.1c0.8,2.6,3.3,4.5,6.1,4.6c-2.2,1.8-5.1,2.8-8.2,2.8c-0.5,0-1.1,0-1.6-0.1c2.9,1.9,6.4,3,10.1,3
		c12.1,0,18.7-10,18.7-18.7c0-0.3,0-0.6,0-0.9C158,10.8,159.1,9.7,160,8.3L160,8.3z"/>
</symbol>
</svg>
